<mxfile host="app.diagrams.net" modified="2023-10-18T08:36:16.793Z" agent="Mozilla/5.0 (Windows NT 10.0; Win64; x64) AppleWebKit/537.36 (KHTML, like Gecko) Chrome/118.0.0.0 Safari/537.36" etag="Zvw_BGWbKaHgtC3UNOIl" version="22.0.4" type="device">
  <diagram name="1 oldal" id="kRixGiV6peQy6zIrn3Vg">
    <mxGraphModel dx="989" dy="545" grid="1" gridSize="10" guides="1" tooltips="1" connect="1" arrows="1" fold="1" page="1" pageScale="1" pageWidth="827" pageHeight="1169" math="0" shadow="0">
      <root>
        <mxCell id="0" />
        <mxCell id="1" parent="0" />
        <mxCell id="rKavOLRGzCB41KAgwjAe-2" value="Fesztivál" style="ellipse;whiteSpace=wrap;html=1;" vertex="1" parent="1">
          <mxGeometry x="320" y="30" width="70" height="40" as="geometry" />
        </mxCell>
        <mxCell id="rKavOLRGzCB41KAgwjAe-7" value="FESZ_ID" style="ellipse;whiteSpace=wrap;html=1;" vertex="1" parent="1">
          <mxGeometry x="160" y="50" width="70" height="40" as="geometry" />
        </mxCell>
        <mxCell id="rKavOLRGzCB41KAgwjAe-8" value="Név" style="ellipse;whiteSpace=wrap;html=1;" vertex="1" parent="1">
          <mxGeometry x="230" y="100" width="70" height="40" as="geometry" />
        </mxCell>
        <mxCell id="rKavOLRGzCB41KAgwjAe-9" value="Helyszín" style="ellipse;whiteSpace=wrap;html=1;" vertex="1" parent="1">
          <mxGeometry x="379" y="120" width="70" height="40" as="geometry" />
        </mxCell>
        <mxCell id="rKavOLRGzCB41KAgwjAe-10" value="Év" style="ellipse;whiteSpace=wrap;html=1;" vertex="1" parent="1">
          <mxGeometry x="430" y="70" width="70" height="40" as="geometry" />
        </mxCell>
        <mxCell id="rKavOLRGzCB41KAgwjAe-12" value="" style="endArrow=none;html=1;rounded=0;exitX=1;exitY=0;exitDx=0;exitDy=0;entryX=0.024;entryY=0.763;entryDx=0;entryDy=0;entryPerimeter=0;" edge="1" parent="1" source="rKavOLRGzCB41KAgwjAe-7" target="rKavOLRGzCB41KAgwjAe-2">
          <mxGeometry width="50" height="50" relative="1" as="geometry">
            <mxPoint x="260" y="200" as="sourcePoint" />
            <mxPoint x="310" y="150" as="targetPoint" />
          </mxGeometry>
        </mxCell>
        <mxCell id="rKavOLRGzCB41KAgwjAe-13" value="" style="endArrow=none;html=1;rounded=0;exitX=0.5;exitY=0;exitDx=0;exitDy=0;entryX=0.388;entryY=1.039;entryDx=0;entryDy=0;entryPerimeter=0;" edge="1" parent="1" source="rKavOLRGzCB41KAgwjAe-8" target="rKavOLRGzCB41KAgwjAe-2">
          <mxGeometry width="50" height="50" relative="1" as="geometry">
            <mxPoint x="260" y="200" as="sourcePoint" />
            <mxPoint x="310" y="150" as="targetPoint" />
          </mxGeometry>
        </mxCell>
        <mxCell id="rKavOLRGzCB41KAgwjAe-14" value="" style="endArrow=none;html=1;rounded=0;exitX=0.344;exitY=-0.022;exitDx=0;exitDy=0;entryX=0.763;entryY=0.97;entryDx=0;entryDy=0;entryPerimeter=0;exitPerimeter=0;" edge="1" parent="1" source="rKavOLRGzCB41KAgwjAe-9" target="rKavOLRGzCB41KAgwjAe-2">
          <mxGeometry width="50" height="50" relative="1" as="geometry">
            <mxPoint x="335" y="130" as="sourcePoint" />
            <mxPoint x="346" y="82" as="targetPoint" />
          </mxGeometry>
        </mxCell>
        <mxCell id="rKavOLRGzCB41KAgwjAe-15" value="" style="endArrow=none;html=1;rounded=0;exitX=0.019;exitY=0.384;exitDx=0;exitDy=0;entryX=0.94;entryY=0.797;entryDx=0;entryDy=0;entryPerimeter=0;exitPerimeter=0;" edge="1" parent="1" source="rKavOLRGzCB41KAgwjAe-10" target="rKavOLRGzCB41KAgwjAe-2">
          <mxGeometry width="50" height="50" relative="1" as="geometry">
            <mxPoint x="413" y="129" as="sourcePoint" />
            <mxPoint x="372" y="79" as="targetPoint" />
          </mxGeometry>
        </mxCell>
        <mxCell id="rKavOLRGzCB41KAgwjAe-16" value="Fellépő" style="ellipse;whiteSpace=wrap;html=1;" vertex="1" parent="1">
          <mxGeometry x="170" y="230" width="70" height="40" as="geometry" />
        </mxCell>
        <mxCell id="rKavOLRGzCB41KAgwjAe-17" value="" style="endArrow=none;html=1;rounded=0;exitX=0.605;exitY=0.03;exitDx=0;exitDy=0;entryX=0.5;entryY=1;entryDx=0;entryDy=0;exitPerimeter=0;" edge="1" parent="1" source="rKavOLRGzCB41KAgwjAe-16" target="rKavOLRGzCB41KAgwjAe-2">
          <mxGeometry width="50" height="50" relative="1" as="geometry">
            <mxPoint x="483" y="169" as="sourcePoint" />
            <mxPoint x="453" y="119" as="targetPoint" />
          </mxGeometry>
        </mxCell>
        <mxCell id="rKavOLRGzCB41KAgwjAe-18" value="ország" style="ellipse;whiteSpace=wrap;html=1;" vertex="1" parent="1">
          <mxGeometry x="239" y="300" width="70" height="40" as="geometry" />
        </mxCell>
        <mxCell id="rKavOLRGzCB41KAgwjAe-19" value="név" style="ellipse;whiteSpace=wrap;html=1;" vertex="1" parent="1">
          <mxGeometry x="140" y="300" width="70" height="40" as="geometry" />
        </mxCell>
        <mxCell id="rKavOLRGzCB41KAgwjAe-20" value="FEL_ID" style="ellipse;whiteSpace=wrap;html=1;" vertex="1" parent="1">
          <mxGeometry x="40" y="250" width="70" height="40" as="geometry" />
        </mxCell>
        <mxCell id="rKavOLRGzCB41KAgwjAe-21" value="díj" style="ellipse;whiteSpace=wrap;html=1;" vertex="1" parent="1">
          <mxGeometry x="320" y="260" width="70" height="40" as="geometry" />
        </mxCell>
        <mxCell id="rKavOLRGzCB41KAgwjAe-22" value="" style="endArrow=none;html=1;rounded=0;exitX=1;exitY=0.5;exitDx=0;exitDy=0;entryX=0.044;entryY=0.677;entryDx=0;entryDy=0;entryPerimeter=0;" edge="1" parent="1" source="rKavOLRGzCB41KAgwjAe-20" target="rKavOLRGzCB41KAgwjAe-16">
          <mxGeometry width="50" height="50" relative="1" as="geometry">
            <mxPoint x="222" y="241" as="sourcePoint" />
            <mxPoint x="295" y="100" as="targetPoint" />
          </mxGeometry>
        </mxCell>
        <mxCell id="rKavOLRGzCB41KAgwjAe-23" value="" style="endArrow=none;html=1;rounded=0;exitX=0.65;exitY=-0.004;exitDx=0;exitDy=0;entryX=0.359;entryY=0.97;entryDx=0;entryDy=0;entryPerimeter=0;exitPerimeter=0;" edge="1" parent="1" source="rKavOLRGzCB41KAgwjAe-19" target="rKavOLRGzCB41KAgwjAe-16">
          <mxGeometry width="50" height="50" relative="1" as="geometry">
            <mxPoint x="120" y="280" as="sourcePoint" />
            <mxPoint x="183" y="267" as="targetPoint" />
          </mxGeometry>
        </mxCell>
        <mxCell id="rKavOLRGzCB41KAgwjAe-24" value="" style="endArrow=none;html=1;rounded=0;exitX=0.773;exitY=0.987;exitDx=0;exitDy=0;entryX=0.339;entryY=0.013;entryDx=0;entryDy=0;entryPerimeter=0;exitPerimeter=0;" edge="1" parent="1" source="rKavOLRGzCB41KAgwjAe-16" target="rKavOLRGzCB41KAgwjAe-18">
          <mxGeometry width="50" height="50" relative="1" as="geometry">
            <mxPoint x="130" y="290" as="sourcePoint" />
            <mxPoint x="193" y="277" as="targetPoint" />
          </mxGeometry>
        </mxCell>
        <mxCell id="rKavOLRGzCB41KAgwjAe-25" value="" style="endArrow=none;html=1;rounded=0;exitX=0.98;exitY=0.797;exitDx=0;exitDy=0;entryX=0;entryY=0.5;entryDx=0;entryDy=0;exitPerimeter=0;" edge="1" parent="1" source="rKavOLRGzCB41KAgwjAe-16" target="rKavOLRGzCB41KAgwjAe-21">
          <mxGeometry width="50" height="50" relative="1" as="geometry">
            <mxPoint x="140" y="300" as="sourcePoint" />
            <mxPoint x="203" y="287" as="targetPoint" />
          </mxGeometry>
        </mxCell>
      </root>
    </mxGraphModel>
  </diagram>
</mxfile>
